HIERARCHY
ROOT hip
{
  OFFSET 0 0 0
  CHANNELS 6 Xposition Yposition Zposition Zrotation Yrotation Xrotation
  JOINT abdomen
  {
    OFFSET 0 20.6881 -0.73152
    CHANNELS 3 Zrotation Xrotation Yrotation
    JOINT chest
    {
      OFFSET 0 11.7043 -0.48768
      CHANNELS 3 Zrotation Xrotation Yrotation
      JOINT neck
      {
        OFFSET 0 22.1894 -2.19456
        CHANNELS 3 Zrotation Xrotation Yrotation
        JOINT head
        {
          OFFSET -0.24384 7.07133 1.2192
          CHANNELS 3 Zrotation Xrotation Yrotation
          JOINT leftEye
          {
            OFFSET 4.14528 8.04674 8.04672
            CHANNELS 3 Zrotation Xrotation Yrotation
            End Site
            {
              OFFSET 1 0 0
            }
          }
          JOINT rightEye
          {
            OFFSET -3.6576 8.04674 8.04672
            CHANNELS 3 Zrotation Xrotation Yrotation
            End Site
            {
              OFFSET 1 0 0
            }
          }
        }
      }
      JOINT rCollar
      {
        OFFSET -2.68224 19.2634 -4.8768
        CHANNELS 3 Zrotation Xrotation Yrotation
        JOINT rShldr
        {
          OFFSET -8.77824 -1.95073 1.46304
          CHANNELS 3 Zrotation Xrotation Yrotation
          JOINT rForeArm
          {
            OFFSET -28.1742 -1.7115 0.48768
            CHANNELS 3 Zrotation Xrotation Yrotation
            JOINT rHand
            {
              OFFSET -22.5879 0.773209 7.07136
              CHANNELS 3 Zrotation Xrotation Yrotation
              JOINT rThumb1
              {
                OFFSET -1.2192 -0.487915 3.41376
                CHANNELS 3 Zrotation Xrotation Yrotation
                JOINT rThumb2
                {
                  OFFSET -3.37035 -0.52449 3.41376
                  CHANNELS 3 Zrotation Xrotation Yrotation
                  End Site
                  {
                    OFFSET -1.78271 -1.18214 1.43049
                  }
                }
              }
              JOINT rIndex1
              {
                OFFSET -7.75947 0.938293 5.60832
                CHANNELS 3 Zrotation Xrotation Yrotation
                JOINT rIndex2
                {
                  OFFSET -2.54057 -0.884171 1.56538
                  CHANNELS 3 Zrotation Xrotation Yrotation
                  End Site
                  {
                    OFFSET -1.62519 -0.234802 1.16502
                  }
                }
              }
              JOINT rMid1
              {
                OFFSET -8.24714 1.18213 3.41376
                CHANNELS 3 Zrotation Xrotation Yrotation
                JOINT rMid2
                {
                  OFFSET -3.10165 -0.590103 1.0647
                  CHANNELS 3 Zrotation Xrotation Yrotation
                  End Site
                  {
                    OFFSET -2.48547 -0.328903 0.83742
                  }
                }
              }
              JOINT rRing1
              {
                OFFSET -8.82822 0.546677 1.51678
                CHANNELS 3 Zrotation Xrotation Yrotation
                JOINT rRing2
                {
                  OFFSET -2.60934 -0.819778 -0.0198488
                  CHANNELS 3 Zrotation Xrotation Yrotation
                  End Site
                  {
                    OFFSET -2.33842 -0.294052 0.168128
                  }
                }
              }
              JOINT rPinky1
              {
                OFFSET -8.27202 -0.0477905 -0.4584
                CHANNELS 3 Zrotation Xrotation Yrotation
                JOINT rPinky2
                {
                  OFFSET -1.82734 -0.647385 -0.700984
                  CHANNELS 3 Zrotation Xrotation Yrotation
                  End Site
                  {
                    OFFSET -1.69225 -0.51767 -0.607171
                  }
                }
              }
            }
          }
        }
      }
      JOINT lCollar
      {
        OFFSET 2.68224 19.2634 -4.8768
        CHANNELS 3 Zrotation Xrotation Yrotation
        JOINT lShldr
        {
          OFFSET 8.77824 -1.95073 1.46304
          CHANNELS 3 Zrotation Xrotation Yrotation
          JOINT lForeArm
          {
            OFFSET 28.1742 -1.7115 0.48768
            CHANNELS 3 Zrotation Xrotation Yrotation
            JOINT lHand
            {
              OFFSET 22.5879 0.773209 7.07136
              CHANNELS 3 Zrotation Xrotation Yrotation
              JOINT lThumb1
              {
                OFFSET 1.2192 -0.487915 3.41376
                CHANNELS 3 Zrotation Xrotation Yrotation
                JOINT lThumb2
                {
                  OFFSET 3.37035 -0.52449 3.41376
                  CHANNELS 3 Zrotation Xrotation Yrotation
                  End Site
                  {
                    OFFSET 1.78271 -1.18214 1.43049
                  }
                }
              }
              JOINT lIndex1
              {
                OFFSET 7.75947 0.938293 5.60832
                CHANNELS 3 Zrotation Xrotation Yrotation
                JOINT lIndex2
                {
                  OFFSET 2.54057 -0.884171 1.56538
                  CHANNELS 3 Zrotation Xrotation Yrotation
                  End Site
                  {
                    OFFSET 1.62519 -0.234802 1.16502
                  }
                }
              }
              JOINT lMid1
              {
                OFFSET 8.24714 1.18213 3.41376
                CHANNELS 3 Zrotation Xrotation Yrotation
                JOINT lMid2
                {
                  OFFSET 3.10165 -0.590103 1.0647
                  CHANNELS 3 Zrotation Xrotation Yrotation
                  End Site
                  {
                    OFFSET 2.48547 -0.328903 0.83742
                  }
                }
              }
              JOINT lRing1
              {
                OFFSET 8.82822 0.546677 1.51678
                CHANNELS 3 Zrotation Xrotation Yrotation
                JOINT lRing2
                {
                  OFFSET 2.60934 -0.819778 -0.0198488
                  CHANNELS 3 Zrotation Xrotation Yrotation
                  End Site
                  {
                    OFFSET 2.33842 -0.294052 0.168128
                  }
                }
              }
              JOINT lPinky1
              {
                OFFSET 8.27202 -0.0477905 -0.4584
                CHANNELS 3 Zrotation Xrotation Yrotation
                JOINT lPinky2
                {
                  OFFSET 1.82734 -0.647385 -0.700984
                  CHANNELS 3 Zrotation Xrotation Yrotation
                  End Site
                  {
                    OFFSET 1.69225 -0.51767 -0.607171
                  }
                }
              }
            }
          }
        }
      }
    }
  }
  JOINT rButtock
  {
    OFFSET -8.77824 4.35084 1.2192
    CHANNELS 3 Zrotation Xrotation Yrotation
    JOINT rThigh
    {
      OFFSET 0 -1.70687 -2.19456
      CHANNELS 3 Zrotation Xrotation Yrotation
      JOINT rShin
      {
        OFFSET 0 -36.8199 0.73152
        CHANNELS 3 Zrotation Xrotation Yrotation
        JOINT rFoot
        {
          OFFSET 0.73152 -45.1104 -5.12064
          CHANNELS 3 Zrotation Xrotation Yrotation
          End Site
          {
            OFFSET -1.1221 -3.69964 12.103
          }
        }
      }
    }
  }
  JOINT lButtock
  {
    OFFSET 8.77824 4.35084 1.2192
    CHANNELS 3 Zrotation Xrotation Yrotation
    JOINT lThigh
    {
      OFFSET 0 -1.70687 -2.19456
      CHANNELS 3 Zrotation Xrotation Yrotation
      JOINT lShin
      {
        OFFSET 0 -36.8199 0.73152
        CHANNELS 3 Zrotation Xrotation Yrotation
        JOINT lFoot
        {
          OFFSET -0.73152 -45.1104 -5.12064
          CHANNELS 3 Zrotation Xrotation Yrotation
          End Site
          {
            OFFSET 1.1221 -3.69964 12.103
          }
        }
      }
    }
  }
}
MOTION
Frames:	4
Frame Time:	0.03333
-0.05869999900460243 83.68679809570312 -1.2419999837875366 -285.73999643325806 46.87869966030121 -277.2390031814575 -28.763800263404846 20.718799978494644 10.446500033140182 -6.948430091142654 -11.194399818778038 1.3346299901604652 1.0893200151622295 11.146399676799774 11.401799619197845 -17.47019961476326 -21.019800156354904 20.0628000497818 0.0 0.0 0.0 0.0 0.0 0.0 1.2789769243681803e-12 0.0 0.0 -8.074230328202248 48.22130084037781 51.579700112342834 -28.16329926252365 -39.443798661231995 82.9308021068573 -0.0030679599149152637 -1.5813600271940231 -0.2223020070232451 -8.44124770082999e-10 1.4171064321999438e-09 -1.1101519703515805e-09 -1.460591647628462e-09 2.460751602484379e-09 -1.9184653865522705e-09 -8.44124770082999e-10 1.4171064321999438e-09 -1.1101519703515805e-09 7.7309102565050125 5.474880114197731 0.41731400415301323 -8.44124770082999e-10 1.4171064321999438e-09 -1.1101519703515805e-09 2.905540131032467 0.9651830233633518 0.102901995414868 -8.44124770082999e-10 1.4171064321999438e-09 -1.1101519703515805e-09 10.27859978377819 0.7318009994924068 0.025912300043273717 -8.44124770082999e-10 1.4171064321999438e-09 -1.1101519703515805e-09 2.221670038998127 -0.733487019315362 -0.2089200052432716 1.2789769243681803e-12 0.0 0.0 -52.363001704216 -18.601300567388535 15.528399646282196 15.776499956846237 -8.481220006942749 -29.202199280261993 0.24498800514265895 -13.955600559711456 2.0014700666069984 -1.6588330709055299e-09 -4.2462033889023587e-10 1.8314949556952342e-09 -2.8815350106015103e-09 -8.338929546880536e-10 3.1513991416431963e-09 -1.6588330709055299e-09 -4.2462033889023587e-10 1.8314949556952342e-09 -7.7309102565050125 5.474880114197731 -0.41731400415301323 -1.6588330709055299e-09 -4.2462033889023587e-10 1.8314949556952342e-09 -2.905540131032467 0.9651830233633518 -0.102901995414868 -1.6588330709055299e-09 -4.2462033889023587e-10 1.8314949556952342e-09 -10.27859978377819 0.7318009994924068 -0.025912300043273717 -1.6588330709055299e-09 -4.2462033889023587e-10 1.8314949556952342e-09 -2.221670038998127 -0.733487019315362 0.2089200052432716 0.0 0.0 0.0 -45.868799686431885 -32.98289895057678 -23.493798673152924 -0.43547201436012983 43.45910042524338 0.7875750213861465 -0.8848750032484531 -7.808009684085846 -2.4837699718773365 0.0 0.0 0.0 49.419100284576416 -2.459530010819435 3.112639859318733 -0.043426399352028966 0.8316639997065067 -0.3825869830325246 -4.267299994826317 8.002530187368393 26.481800973415375
-0.5106999911367893 84.24359893798828 -3.4250000715255737 -285.21600008010864 46.18859946727753 -276.63599967956543 -27.896499931812286 21.482499986886978 9.558670073747635 -6.397840306162834 -11.340300589799881 1.1723199672996998 1.335029974579811 10.85920013487339 10.864500179886818 -17.659999430179596 -21.11880049109459 18.909600377082825 0.0 0.0 0.0 0.0 0.0 0.0 0.0 0.0 0.0 -11.498399376869202 45.90079843997955 55.08939743041992 -28.167899250984192 -39.40549939870834 82.86699771881104 -0.011460200330475345 -3.0829300358891487 -0.4336380120366812 3.0951241569709964e-10 -7.725020623183809e-10 -6.343725544866174e-10 5.333333774615312e-10 -1.3250200936454348e-09 -1.0948042472591624e-09 3.0951241569709964e-10 -7.725020623183809e-10 -6.343725544866174e-10 7.7309102565050125 5.474880114197731 0.41731400415301323 3.0951241569709964e-10 -7.725020623183809e-10 -6.343725544866174e-10 2.905540131032467 0.9651830233633518 0.102901995414868 3.0951241569709964e-10 -7.725020623183809e-10 -6.343725544866174e-10 10.27859978377819 0.7318009994924068 0.025912300043273717 3.0951241569709964e-10 -7.725020623183809e-10 -6.343725544866174e-10 2.221670038998127 -0.733487019315362 -0.2089200052432716 0.0 0.0 0.0 -53.43780040740967 -23.953998684883118 17.82120019197464 14.982700198888779 -7.744279727339745 -27.631800770759583 0.08716890122741461 -8.906079903244972 1.2607900332659483 3.248601387895178e-10 5.5354121286654845e-09 1.2636292012757622e-09 5.499600774783175e-10 9.505356501904316e-09 2.1793766791233793e-09 3.248601387895178e-10 5.5354121286654845e-09 1.2636292012757622e-09 -7.7309102565050125 5.474880114197731 -0.41731400415301323 3.248601387895178e-10 5.5354121286654845e-09 1.2636292012757622e-09 -2.905540131032467 0.9651830233633518 -0.102901995414868 3.248601387895178e-10 5.5354121286654845e-09 1.2636292012757622e-09 -10.27859978377819 0.7318009994924068 -0.025912300043273717 3.248601387895178e-10 5.5354121286654845e-09 1.2636292012757622e-09 -2.221670038998127 -0.733487019315362 0.2089200052432716 0.0 0.0 0.0 -47.34429895877838 -32.23499983549118 -24.514800310134888 -0.3945800196379423 41.81990057229996 0.7894489634782076 -1.0337100271135569 -7.340029925107956 -4.1113100945949554 0.0 0.0 0.0 51.81760132312775 -5.369359999895096 3.8143201544880867 0.0014845799341856036 6.4910101890563965 -0.590205006301403 -4.0966300293803215 8.616800308227539 25.530399978160858
-0.9779999889433384 84.543701171875 -5.040000081062317 -283.97199153900146 45.738701820373535 -275.57899475097656 -26.280900835990906 22.642900049686432 8.930030018091202 -5.721829757094383 -11.518499851226807 1.139110028743744 1.543519925326109 10.791499838232994 10.275399908423424 -17.689299881458282 -21.37930065393448 17.651900500059128 0.0 0.0 0.0 0.0 0.0 0.0 0.0 0.0 0.0 -13.506200462579727 44.14700120687485 57.17509925365448 -28.155899047851562 -39.49440121650696 83.02039861679077 -0.02027339956839569 -4.061420001089573 -0.5717630172148347 1.2828138551412849e-09 -2.0872903405688703e-09 2.916067387559451e-10 2.2151880330056883e-09 -3.6067149267182685e-09 5.064748620497994e-10 1.2828138551412849e-09 -2.0872903405688703e-09 2.916067387559451e-10 7.7309102565050125 5.474880114197731 0.41731400415301323 1.2828138551412849e-09 -2.0872903405688703e-09 2.916067387559451e-10 2.905540131032467 0.9651830233633518 0.102901995414868 1.2828138551412849e-09 -2.0872903405688703e-09 2.916067387559451e-10 10.27859978377819 0.7318009994924068 0.025912300043273717 1.2828138551412849e-09 -2.0872903405688703e-09 2.916067387559451e-10 2.221670038998127 -0.733487019315362 -0.2089200052432716 0.0 0.0 0.0 -54.74410057067871 -27.941799759864807 19.11699950695038 14.844900369644165 -7.6568397134542465 -27.270000278949738 0.03981209913035855 -5.685640051960945 0.8017240092158318 2.552837941038888e-09 1.0349481271987315e-08 3.376499080331996e-10 4.409912435221486e-09 1.7905676941154525e-08 5.985612006043084e-10 2.552837941038888e-09 1.0349481271987315e-08 3.376499080331996e-10 -7.7309102565050125 5.474880114197731 -0.41731400415301323 2.552837941038888e-09 1.0349481271987315e-08 3.376499080331996e-10 -2.905540131032467 0.9651830233633518 -0.102901995414868 2.552837941038888e-09 1.0349481271987315e-08 3.376499080331996e-10 -10.27859978377819 0.7318009994924068 -0.025912300043273717 2.552837941038888e-09 1.0349481271987315e-08 3.376499080331996e-10 -2.221670038998127 -0.733487019315362 0.2089200052432716 0.0 0.0 0.0 -47.9461008310318 -31.469001173973083 -23.778198659420013 -0.34573299111798406 40.24489939212799 0.8404209930449724 -1.183290034532547 -7.1059300750494 -6.611670032143593 0.0 0.0 0.0 55.11220157146454 -13.184799402952194 9.064139798283577 0.05290050117764622 21.831400394439697 -1.0221099760383368 -2.6675100065767765 7.341250330209732 23.48479986190796
-1.457499984651804 84.4561996459961 -6.491000056266785 -282.8640031814575 46.08289897441864 -275.40799856185913 -24.789901077747345 24.447098672389984 9.626509845256805 -5.335179939866066 -11.549799889326096 1.4169800095260143 1.6724000684916973 11.2834994494915 9.816080331802368 -17.796400487422943 -21.27130016684532 16.713699996471405 0.0 0.0 0.0 0.0 0.0 0.0 0.0 0.0 0.0 -13.655399680137634 43.579300940036774 57.98779785633087 -28.140401244163513 -39.59539979696274 83.20040166378021 -0.018365399446338415 -3.825800009071827 -0.5385120073333383 9.592326932761353e-11 1.284092832065653e-09 9.92486093309708e-10 1.6370904631912708e-10 2.220303940703161e-09 1.7138290786533616e-09 9.592326932761353e-11 1.284092832065653e-09 9.92486093309708e-10 7.7309102565050125 5.474880114197731 0.41731400415301323 9.592326932761353e-11 1.284092832065653e-09 9.92486093309708e-10 2.905540131032467 0.9651830233633518 0.102901995414868 9.592326932761353e-11 1.284092832065653e-09 9.92486093309708e-10 10.27859978377819 0.7318009994924068 0.025912300043273717 9.592326932761353e-11 1.284092832065653e-09 9.92486093309708e-10 2.221670038998127 -0.733487019315362 -0.2089200052432716 0.0 0.0 0.0 -56.59640192985535 -28.052100241184235 18.281200379133224 15.03960058093071 -7.82121017575264 -27.67839878797531 0.0789773982251063 -7.905569672584534 1.1196899972856045 1.886490963443066e-09 8.538449947081972e-09 4.297362465877086e-10 3.2652280879119644e-09 1.4790089153393637e-08 7.5203843152849e-10 1.886490963443066e-09 8.538449947081972e-09 4.297362465877086e-10 -7.7309102565050125 5.474880114197731 -0.41731400415301323 1.886490963443066e-09 8.538449947081972e-09 4.297362465877086e-10 -2.905540131032467 0.9651830233633518 -0.102901995414868 1.886490963443066e-09 8.538449947081972e-09 4.297362465877086e-10 -10.27859978377819 0.7318009994924068 -0.025912300043273717 1.886490963443066e-09 8.538449947081972e-09 4.297362465877086e-10 -2.221670038998127 -0.733487019315362 0.2089200052432716 0.0 0.0 0.0 -46.574901938438416 -30.050300359725952 -19.526000171899796 -0.2993749896995723 38.08840066194534 0.8656330034136772 -1.577370073646307 -7.0555199682712555 -10.156600177288055 0.0 0.0 0.0 61.21840059757233 -19.48959991335869 17.186400443315506 0.1288450020365417 38.0485001206398 -1.5170299261808395 -1.3984099868685007 5.709179788827896 20.99910020828247
